# xmcd CD database file
#
# Track frame offsets:
#	150
#	16698
#	32580
#	57991
#	77717
#	99006
#	122556
#	147729
#	170268
#	189482
#	211900
#	233203
#	254986
#	275680
#	295930
#	314417
#
# Disc length: 4495 seconds
#
# Revision: 0
# Processed by: cddbd v1.5.1PL0 Copyright (c) Steve Scherf et al.
# Submitted via: CDex 1.51
#
DISCID=e5118d10
DTITLE=Variado - Tropical Music
DYEAR=2004
DGENRE=Salsa
TTITLE0=Bavaro Beach
TTITLE1=La Bomba
TTITLE2=Latino
TTITLE3=Obsesión
TTITLE4=Hermanita
TTITLE5=Hermoso Callaguate
TTITLE6=Amiga Veneno
TTITLE7=Se Nos Perdió El Amor
TTITLE8=Pueden Decir
TTITLE9=Lluvia
TTITLE10=Carta De Amor
TTITLE11=Viven Murmurando
TTITLE12=Noches De Fantasía
TTITLE13=Chulo Que Chulo
TTITLE14=La Bilirrubina
TTITLE15=Cuando Volverás
EXTD=YEAR: 2004
EXTT0=
EXTT1=
EXTT2=
EXTT3=
EXTT4=
EXTT5=
EXTT6=
EXTT7=
EXTT8=
EXTT9=
EXTT10=
EXTT11=
EXTT12=
EXTT13=
EXTT14=
EXTT15=
PLAYORDER=
